<svg xmlns="http://www.w3.org/2000/svg" xmlns:xlink="http://www.w3.org/1999/xlink" xmlns:lucid="lucid" width="2542" height="942"><g transform="translate(-1479 -359)" lucid:page-tab-id="0_0"><path d="M1500 0h2500v1500H1500z" fill="#fff"/><path d="M3740 862.38a6 6 0 0 1 6-6h248a6 6 0 0 1 6 6v48a6 6 0 0 1-6 6h-248a6 6 0 0 1-6-6z" stroke="#282c33" stroke-width="2" fill="#fff"/><use xlink:href="#a" transform="matrix(1,0,0,1,3745,861.37499752821) translate(0 17.77777777777778)"/><use xlink:href="#b" transform="matrix(1,0,0,1,3745,861.37499752821) translate(57.46913580246913 17.77777777777778)"/><use xlink:href="#c" transform="matrix(1,0,0,1,3745,861.37499752821) translate(131.54320987654322 17.77777777777778)"/><use xlink:href="#d" transform="matrix(1,0,0,1,3745,861.37499752821) translate(145.06172839506172 17.77777777777778)"/><use xlink:href="#e" transform="matrix(1,0,0,1,3745,861.37499752821) translate(193.14814814814815 17.77777777777778)"/><path d="M1500 548.98a6 6 0 0 1 6-6h148a6 6 0 0 1 6 6v108a6 6 0 0 1-6 6h-148a6 6 0 0 1-6-6z" stroke="#282c33" stroke-width="2" fill="#fff"/><use xlink:href="#f" transform="matrix(1,0,0,1,1512,554.9779552184133) translate(33.49382716049383 53.77777777777778)"/><path d="M1664 746.98c-13.26 0-24-10.75-24-24 0-10.6 6.5-19.55 16.58-22.83-.58-31.17 39.42-37.17 55.42-25.17 8-18 48-12 48 6 24-6 48 18 32 48 16 24 0 54-32 42-8 15.6-40 15.6-48 0-16 12-48 6-48-24z" stroke="#282c33" stroke-width="2" fill="#fff"/><use xlink:href="#g" transform="matrix(1,0,0,1,1645,667.9779552184133) translate(35.876543209876544 59.02777777777778)"/><path d="M1639.87 715.08H1586a6 6 0 0 1-6-6v-28.72" stroke="#3a414a" fill="none"/><path d="M1640.2 715.55h-.34v-.94h.67z" stroke="#3a414a" stroke-width=".05" fill="#3a414a"/><path d="M1580 665.6l4.63 14.26h-9.27z" stroke="#3a414a" fill="#3a414a"/><path d="M1860 386a6 6 0 0 1 6-6h1348a6 6 0 0 1 6 6v888a6 6 0 0 1-6 6H1866a6 6 0 0 1-6-6z" fill="#fff"/><path d="M1885.97 380h19.97m10 0h19.96m9.98 0h19.97m10 0h19.96m10 0h19.96m10 0h19.96m9.98 0h19.97m10 0h19.96m9.98 0h20m9.97 0h19.97m10 0h19.96m9.98 0h19.97m10 0h19.96m10 0h19.96m10 0h19.96m9.98 0h19.97m10 0h19.96m10 0h19.95m10 0h19.96m10 0h19.96m9.98 0h19.97m10 0H2535m10 0h19.96m10 0h19.96m9.98 0h19.97m10 0h19.96m10 0h19.95m10 0h19.96m10 0h19.96m9.98 0h19.97m10 0h19.96m10 0h19.96m10 0h19.96m9.98 0h19.97m10 0h19.96m10 0h19.96m9.97 0h19.97m10 0h19.96m9.98 0h19.97m10 0h19.96m10 0h19.96m10 0h19.96m9.98 0h19.97m10 0h19.96m9.98 0h10l.94.07.9.22.88.35.8.5.72.6.6.72.5.8.37.88.23.9.07.95v9.87m0 9.86v19.74m0 9.86v19.74m0 9.86v19.74m0 9.86v19.74m0 9.86v19.74m0 9.86v19.74m0 9.86v19.74m0 9.86v19.74m0 9.86v19.74m0 9.86v19.74m0 9.86v19.74m0 9.86v19.74m0 9.86v19.74m0 9.86v19.74m0 9.86v19.74m0 9.86v19.74m0 9.86v19.74m0 9.86v19.74m0 9.86v19.74m0 9.86v19.74m0 9.86v19.74m0 9.86v19.74m0 9.86v19.74m0 9.86v19.74m0 9.86v19.74m0 9.86v19.74m0 9.86v19.74m0 9.86v19.74m0 9.86v19.74m0 9.86v9.87l-.07.94-.22.9-.35.88-.5.8-.6.72-.72.6-.8.5-.88.37-.9.23-.95.07h-10m-9.97 0h-19.97m-10 0h-19.96m-9.98 0h-19.97m-10 0h-19.96m-10 0h-19.96m-10 0h-19.96m-9.98 0h-19.97m-10 0h-19.96m-9.98 0h-20m-9.97 0h-19.97m-10 0h-19.96m-9.98 0h-19.97m-10 0h-19.96m-10 0h-19.96m-10 0h-19.96m-9.98 0h-19.97m-10 0h-19.96m-10 0h-19.95m-10 0h-19.96m-10 0h-19.96m-9.98 0h-19.97m-10 0H2545m-10 0h-19.96m-10 0h-19.96m-9.98 0h-19.97m-10 0h-19.96m-10 0h-19.95m-10 0h-19.96m-10 0h-19.96m-9.98 0h-19.97m-10 0h-19.96m-10 0h-19.96m-10 0h-19.96m-9.98 0h-19.97m-10 0h-19.96m-10 0h-19.96m-9.97 0h-19.97m-10 0h-19.96m-9.98 0h-19.97m-10 0h-19.96m-10 0h-19.96m-10 0h-19.96m-9.98 0h-19.97m-10 0h-19.96m-10 0H1866l-.94-.07-.9-.22-.88-.35-.8-.5-.72-.6-.6-.72-.5-.8-.37-.88-.23-.9-.07-.95v-9.87m0-9.86v-19.74m0-9.86v-19.74m0-9.86v-19.74m0-9.86v-19.74m0-9.86v-19.74m0-9.86v-19.74m0-9.86v-19.74m0-9.86v-19.74m0-9.86v-19.74m0-9.86v-19.74m0-9.86v-19.74m0-9.86v-19.74m0-9.86v-19.74m0-9.86v-19.74m0-9.86v-19.74m0-9.86v-19.74m0-9.86v-19.74m0-9.86v-19.74m0-9.86v-19.74m0-9.86v-19.74m0-9.86v-19.74m0-9.86v-19.74m0-9.86v-19.74m0-9.86v-19.74m0-9.86v-19.74m0-9.86v-19.74m0-9.86v-19.74m0-9.86v-19.74m0-9.86v-19.74m0-9.86V386l.07-.94.22-.9.35-.88.5-.8.6-.72.72-.6.8-.5.88-.37.9-.23.95-.07h9.98" stroke="#282c33" stroke-width="2" fill="none"/><use xlink:href="#h" transform="matrix(1,0,0,1,1865,385) translate(0 17.77777777777778)"/><use xlink:href="#i" transform="matrix(1,0,0,1,1865,385) translate(39.44444444444444 17.77777777777778)"/><use xlink:href="#j" transform="matrix(1,0,0,1,1865,385) translate(118.73333333333335 17.77777777777778)"/><path d="M1900 434.48a6 6 0 0 1 6-6h1268a6 6 0 0 1 6 6V1234a6 6 0 0 1-6 6H1906a6 6 0 0 1-6-6z" stroke="#282c33" stroke-width="2" fill="#fff"/><use xlink:href="#k" transform="matrix(1,0,0,1,1905,433.47794533125466) translate(0 17.77777777777778)"/><use xlink:href="#c" transform="matrix(1,0,0,1,1905,433.47794533125466) translate(94.87654320987654 17.77777777777778)"/><use xlink:href="#l" transform="matrix(1,0,0,1,1905,433.47794533125466) translate(108.39506172839506 17.77777777777778)"/><use xlink:href="#m" transform="matrix(1,0,0,1,1905,433.47794533125466) translate(184.8148148148148 17.77777777777778)"/><use xlink:href="#e" transform="matrix(1,0,0,1,1905,433.47794533125466) translate(215.679012345679 17.77777777777778)"/><path d="M3100 1066a6 6 0 0 1 6-6h208a6 6 0 0 1 6 6v80.75a6 6 0 0 1-6 6h-208a6 6 0 0 1-6-6z" fill="#fff"/><path d="M3125.8 1060h19.82m9.9 0h19.8m9.92 0h19.8m9.9 0h19.82m9.9 0h19.82m9.9 0h19.8m9.9 0h9.92l.94.07.9.22.88.35.8.5.72.6.6.72.5.8.37.88.23.9.07.95v8.97m0 8.97v17.95m0 8.96v17.95m0 8.98v8.97l-.07.94-.22.9-.35.87-.5.8-.6.72-.72.6-.8.5-.88.36-.9.22-.95.07h-9.9m-9.9 0h-19.82m-9.9 0h-19.8m-9.92 0h-19.8m-9.9 0h-19.82m-9.9 0h-19.82m-9.9 0h-19.8m-9.9 0H3106l-.94-.07-.9-.22-.88-.36-.8-.5-.72-.6-.6-.72-.5-.8-.37-.88-.23-.9-.07-.95v-8.97m0-8.97v-17.94m0-8.97v-17.96m0-8.97V1066l.07-.94.22-.9.35-.88.5-.8.6-.72.72-.6.8-.5.88-.37.9-.23.95-.07h9.9" stroke="#282c33" stroke-width="2" fill="none"/><use xlink:href="#n" transform="matrix(1,0,0,1,3112,1072) translate(0 17.77777777777778)"/><use xlink:href="#o" transform="matrix(1,0,0,1,3112,1072) translate(40.74074074074074 17.77777777777778)"/><use xlink:href="#p" transform="matrix(1,0,0,1,3112,1072) translate(85.12345679012347 17.77777777777778)"/><path d="M1920 486a6 6 0 0 1 6-6h888a6 6 0 0 1 6 6v708a6 6 0 0 1-6 6h-888a6 6 0 0 1-6-6z" fill="#fff"/><path d="M1945.73 480h19.74m9.86 0h19.74m9.86 0h19.74m9.86 0h19.74m9.86 0h19.74m9.86 0h19.74m9.86 0h19.74m9.86 0h19.74m9.86 0h19.74m9.86 0h19.74m9.86 0h19.74m9.86 0h19.74m9.86 0h19.74m9.86 0h19.74m9.86 0h19.74m9.86 0h19.74m9.86 0h19.74m9.86 0h19.74m9.86 0h19.74m9.86 0h19.74m9.86 0h19.74m9.86 0h19.74m9.86 0h19.74m9.86 0h19.74m9.86 0h19.74m9.86 0h19.74m9.86 0h19.74m9.86 0h19.74m9.86 0h19.74m9.86 0h9.87l.94.07.9.22.88.35.8.5.72.6.6.72.5.8.37.88.23.9.07.95v9.83m0 9.84v19.66m0 9.84v19.66m0 9.84v19.66m0 9.84v19.66m0 9.84v19.66m0 9.84v19.66m0 9.84v19.66m0 9.84v19.66m0 9.84v19.66m0 9.84v19.66m0 9.84v19.66m0 9.84v19.66m0 9.84v19.66m0 9.84v19.66m0 9.84v19.66m0 9.84v19.66m0 9.84v19.66m0 9.84v19.66m0 9.84v19.66m0 9.84v19.66m0 9.84v19.66m0 9.84v19.66m0 9.84v19.66m0 9.84v9.83l-.07.94-.22.9-.35.88-.5.8-.6.72-.72.6-.8.5-.88.37-.9.23-.95.07h-9.87m-9.86 0h-19.74m-9.86 0h-19.74m-9.86 0h-19.74m-9.86 0h-19.74m-9.86 0h-19.74m-9.86 0h-19.74m-9.86 0h-19.74m-9.86 0h-19.74m-9.86 0h-19.74m-9.86 0h-19.74m-9.86 0h-19.74m-9.86 0h-19.74m-9.86 0h-19.74m-9.86 0h-19.74m-9.86 0h-19.74m-9.86 0h-19.74m-9.86 0h-19.74m-9.86 0h-19.74m-9.86 0h-19.74m-9.86 0h-19.74m-9.86 0h-19.74m-9.86 0h-19.74m-9.86 0h-19.74m-9.86 0h-19.74m-9.86 0h-19.74m-9.86 0h-19.74m-9.86 0h-19.74m-9.86 0h-19.74m-9.86 0h-19.74m-9.86 0H1926l-.94-.07-.9-.22-.88-.35-.8-.5-.72-.6-.6-.72-.5-.8-.37-.88-.23-.9-.07-.95v-9.83m0-9.84v-19.66m0-9.84v-19.66m0-9.84v-19.66m0-9.84v-19.66m0-9.84v-19.66m0-9.84v-19.66m0-9.84v-19.66m0-9.84v-19.66m0-9.84v-19.66m0-9.84v-19.66m0-9.84v-19.66m0-9.84v-19.66m0-9.84v-19.66m0-9.84v-19.66m0-9.84v-19.66m0-9.84v-19.66m0-9.84v-19.66m0-9.84v-19.66m0-9.84v-19.66m0-9.84v-19.66m0-9.84v-19.66m0-9.84v-19.66m0-9.84v-19.66m0-9.84V486l.07-.94.22-.9.35-.88.5-.8.6-.72.72-.6.8-.5.88-.37.9-.23.95-.07h9.87" stroke="#282c33" stroke-width="2" fill="none"/><use xlink:href="#q" transform="matrix(1,0,0,1,1925,485) translate(0 17.77777777777778)"/><use xlink:href="#r" transform="matrix(1,0,0,1,1925,485) translate(93.64197530864196 17.77777777777778)"/><path d="M1940 526a6 6 0 0 1 6-6h808a6 6 0 0 1 6 6v648a6 6 0 0 1-6 6h-808a6 6 0 0 1-6-6z" stroke="#282c33" stroke-width="2" fill="#fff"/><use xlink:href="#s" transform="matrix(1,0,0,1,1945,525) translate(0 17.77777777777778)"/><use xlink:href="#c" transform="matrix(1,0,0,1,1945,525) translate(54.25925925925926 17.77777777777778)"/><use xlink:href="#t" transform="matrix(1,0,0,1,1945,525) translate(67.77777777777777 17.77777777777778)"/><use xlink:href="#u" transform="matrix(1,0,0,1,1945,525) translate(129.44444444444443 17.77777777777778)"/><use xlink:href="#v" transform="matrix(1,0,0,1,1945,525) translate(148.58024691358023 17.77777777777778)"/><use xlink:href="#e" transform="matrix(1,0,0,1,1945,525) translate(206.358024691358 17.77777777777778)"/><path d="M1969.66 580.5a6 6 0 0 1 6-6h268a6 6 0 0 1 6 6V844a6 6 0 0 1-6 6h-268a6 6 0 0 1-6-6z" stroke="#282c33" stroke-width="2" fill="#fff"/><use xlink:href="#w" transform="matrix(1,0,0,1,1974.6566665591158,579.5000098871586) translate(0 17.77777777777778)"/><use xlink:href="#c" transform="matrix(1,0,0,1,1974.6566665591158,579.5000098871586) translate(64.07407407407408 17.77777777777778)"/><use xlink:href="#l" transform="matrix(1,0,0,1,1974.6566665591158,579.5000098871586) translate(77.5925925925926 17.77777777777778)"/><use xlink:href="#m" transform="matrix(1,0,0,1,1974.6566665591158,579.5000098871586) translate(154.01234567901236 17.77777777777778)"/><use xlink:href="#e" transform="matrix(1,0,0,1,1974.6566665591158,579.5000098871586) translate(184.87654320987656 17.77777777777778)"/><path d="M1989.66 620.5a6 6 0 0 1 6-6h228a6 6 0 0 1 6 6v199.88a6 6 0 0 1-6 6h-228a6 6 0 0 1-6-6z" stroke="#282c33" stroke-width="2" fill="#fff"/><use xlink:href="#x" transform="matrix(1,0,0,1,1994.6566665591158,619.5000098871586) translate(0 17.77777777777778)"/><path d="M2029.66 660.5a6 6 0 0 1 6-6h148a6 6 0 0 1 6 6v128a6 6 0 0 1-6 6h-148a6 6 0 0 1-6-6z" stroke="#282c33" stroke-width="2" fill="#fff"/><use xlink:href="#y" transform="matrix(1,0,0,1,2034.6566665591158,659.5000098871586) translate(37.37654320987654 70.59027777777777)"/><path d="M2028.16 724.5h-216.6" stroke="#3a414a" fill="none"/><path d="M2028.66 724.98h-.52V724h.52z" stroke="#3a414a" stroke-width=".05" fill="#3a414a"/><path d="M1796.8 724.5l14.26-4.63v9.26z" stroke="#3a414a" fill="#3a414a"/><path d="M2191.16 724.5h171.46" stroke="#3a414a" fill="none"/><path d="M2191.17 724.98h-.5V724h.5z" stroke="#3a414a" stroke-width=".05" fill="#3a414a"/><path d="M2377.38 724.5l-14.26 4.63v-9.26z" stroke="#3a414a" fill="#3a414a"/><use xlink:href="#z" transform="matrix(1,0,0,1,2303.5951934246004,728.5000098871586) translate(0 14.222222222222223)"/><use xlink:href="#A" transform="matrix(1,0,0,1,2303.5951934246004,728.5000098871586) translate(0 35.55555555555556)"/><path d="M2380 680.5a6 6 0 0 1 6-6h248a6 6 0 0 1 6 6v88a6 6 0 0 1-6 6h-248a6 6 0 0 1-6-6z" stroke="#282c33" stroke-width="2" fill="#fff"/><use xlink:href="#B" transform="matrix(1,0,0,1,2385,679.5000098871586) translate(0 17.77777777777778)"/><use xlink:href="#c" transform="matrix(1,0,0,1,2385,679.5000098871586) translate(61.666666666666664 17.77777777777778)"/><use xlink:href="#l" transform="matrix(1,0,0,1,2385,679.5000098871586) translate(75.18518518518519 17.77777777777778)"/><use xlink:href="#m" transform="matrix(1,0,0,1,2385,679.5000098871586) translate(151.60493827160494 17.77777777777778)"/><use xlink:href="#e" transform="matrix(1,0,0,1,2385,679.5000098871586) translate(182.46913580246914 17.77777777777778)"/><path d="M1960 906a6 6 0 0 1 6-6h524.44a6 6 0 0 1 6 6v248a6 6 0 0 1-6 6H1966a6 6 0 0 1-6-6z" stroke="#282c33" stroke-width="2" fill="#fff"/><use xlink:href="#w" transform="matrix(1,0,0,1,1965,905) translate(0 17.77777777777778)"/><use xlink:href="#c" transform="matrix(1,0,0,1,1965,905) translate(64.07407407407408 17.77777777777778)"/><use xlink:href="#l" transform="matrix(1,0,0,1,1965,905) translate(77.5925925925926 17.77777777777778)"/><use xlink:href="#m" transform="matrix(1,0,0,1,1965,905) translate(154.01234567901236 17.77777777777778)"/><use xlink:href="#e" transform="matrix(1,0,0,1,1965,905) translate(184.87654320987656 17.77777777777778)"/><path d="M1989.66 952.38a6 6 0 0 1 6-6h464.44a6 6 0 0 1 6 6v188a6 6 0 0 1-6 6h-464.44a6 6 0 0 1-6-6z" stroke="#282c33" stroke-width="2" fill="#fff"/><use xlink:href="#x" transform="matrix(1,0,0,1,1994.6566665591158,951.3749975282103) translate(0 17.77777777777778)"/><path d="M2060 986a6 6 0 0 1 6-6h148a6 6 0 0 1 6 6v128a6 6 0 0 1-6 6h-148a6 6 0 0 1-6-6z" stroke="#282c33" stroke-width="2" fill="#fff"/><use xlink:href="#C" transform="matrix(1,0,0,1,2065,985) translate(28.641975308641975 54.34027777777778)"/><use xlink:href="#D" transform="matrix(1,0,0,1,2065,985) translate(83.20987654320987 54.34027777777778)"/><use xlink:href="#E" transform="matrix(1,0,0,1,2065,985) translate(42.345679012345684 81.00694444444446)"/><path d="M2270 986a6 6 0 0 1 6-6h148a6 6 0 0 1 6 6v128a6 6 0 0 1-6 6h-148a6 6 0 0 1-6-6z" stroke="#282c33" stroke-width="2" fill="#fff"/><use xlink:href="#C" transform="matrix(1,0,0,1,2275,985) translate(28.641975308641975 54.34027777777778)"/><use xlink:href="#D" transform="matrix(1,0,0,1,2275,985) translate(83.20987654320987 54.34027777777778)"/><use xlink:href="#F" transform="matrix(1,0,0,1,2275,985) translate(45.98765432098766 81.00694444444446)"/><path d="M2221.5 1050h31.12" stroke="#3a414a" fill="none"/><path d="M2221.5 1050.47h-.5v-.94h.5z" stroke="#3a414a" stroke-width=".05" fill="#3a414a"/><path d="M2267.38 1050l-14.26 4.63v-9.27z" stroke="#3a414a" fill="#3a414a"/><path d="M2058.5 1050h-316.33a6 6 0 0 1-6-6V800" stroke="#3a414a" fill="none"/><path d="M2059 1050.47h-.5v-.94h.5z" stroke="#3a414a" stroke-width=".05" fill="#3a414a"/><path d="M1736.17 785.24l4.64 14.27h-9.26z" stroke="#3a414a" fill="#3a414a"/><path d="M2960 832.38a6 6 0 0 1 6-6h148a6 6 0 0 1 6 6v108a6 6 0 0 1-6 6h-148a6 6 0 0 1-6-6z" stroke="#282c33" stroke-width="2" fill="#fff"/><use xlink:href="#n" transform="matrix(1,0,0,1,2972,838.3749975282103) translate(19.851851851851848 53.77777777777778)"/><use xlink:href="#G" transform="matrix(1,0,0,1,2972,838.3749975282103) translate(60.59259259259259 53.77777777777778)"/><path d="M2960 560.5a6 6 0 0 1 6-6h148a6 6 0 0 1 6 6v108a6 6 0 0 1-6 6h-148a6 6 0 0 1-6-6z" stroke="#282c33" stroke-width="2" fill="#fff"/><use xlink:href="#H" transform="matrix(1,0,0,1,2972,566.5000098871586) translate(44.60493827160494 53.77777777777778)"/><path d="M3247.64 862.8H3137.4v-.94h110.24zm490.86 0h-37.3v-.94h37.3z" stroke="#3a414a" stroke-width=".05" fill="#3a414a"/><path d="M3739 862.34v.47h-.5v-.94h.54z" fill="#3a414a"/><path stroke="#3a414a" stroke-width=".05" fill="#3a414a"/><path d="M3136.9 866.97l-14.28-4.63 14.27-4.64z" fill="#3a414a"/><path d="M3137.36 867.63l-16.28-5.3 16.28-5.28zm-13.2-5.3l12.25 4v-7.98z" stroke="#3a414a" stroke-width=".05" fill="#3a414a"/><use xlink:href="#I" transform="matrix(1,0,0,1,3305.6571628642046,851.6690415298573) translate(0 14.222222222222223)"/><use xlink:href="#J" transform="matrix(1,0,0,1,3247.639829129667,850.8690415298569) translate(0 15.288888888888884)"/><use xlink:href="#K" transform="matrix(1,0,0,1,3247.639829129667,850.8690415298569) translate(35.037037037037024 15.288888888888884)"/><use xlink:href="#L" transform="matrix(1,0,0,1,3247.639829129667,850.8690415298569) translate(56.5901234567901 15.288888888888884)"/><use xlink:href="#M" transform="matrix(1,0,0,1,3247.639829129667,850.8690415298569) translate(256.9382716049382 15.288888888888884)"/><path d="M3251.33 906.85H3137.4v-.95h113.93zm487.17 0h-52.4v-.95h52.4z" stroke="#3a414a" stroke-width=".05" fill="#3a414a"/><path d="M3739 906.85h-.5v-.95h.5z" fill="#3a414a"/><path stroke="#3a414a" stroke-width=".05" fill="#3a414a"/><path d="M3136.9 911l-14.28-4.63 14.27-4.63z" fill="#3a414a"/><path d="M3137.36 911.66l-16.28-5.28 16.28-5.3zm-13.2-5.28l12.25 3.98v-7.97z" stroke="#3a414a" stroke-width=".05" fill="#3a414a"/><use xlink:href="#I" transform="matrix(1,0,0,1,3305.6572188713985,895.7083308615433) translate(0 14.222222222222223)"/><use xlink:href="#J" transform="matrix(1,0,0,1,3251.331399168177,894.9083308615432) translate(0 15.288888888888884)"/><use xlink:href="#K" transform="matrix(1,0,0,1,3251.331399168177,894.9083308615432) translate(35.037037037037024 15.288888888888884)"/><use xlink:href="#N" transform="matrix(1,0,0,1,3251.331399168177,894.9083308615432) translate(56.5901234567901 15.288888888888884)"/><use xlink:href="#M" transform="matrix(1,0,0,1,3251.331399168177,894.9083308615432) translate(238.14567901234562 15.288888888888884)"/><path d="M2535.4 925.93h-337.85l-.88.07-.85.2-.8.34-.74.45-.65.55-.57.66-.45.75-.32.8-.2.84-.07.88v31.14h-.94v-31.18l.08-1 .23-.98.4-.94.52-.87.65-.77.78-.66.86-.53.93-.4 1-.24.98-.08h337.9zm423.1 0h-230.1v-.95h230.1z" stroke="#3a414a" stroke-width=".05" fill="#3a414a"/><path d="M2959 925.93h-.5v-.95h.5z" fill="#3a414a"/><path stroke="#3a414a" stroke-width=".05" fill="#3a414a"/><path d="M2191.53 977.38l-4.63-14.26h9.27z" fill="#3a414a"/><path d="M2191.53 978.92l-5.3-16.28h10.6zm-3.98-15.33l3.98 12.25 3.98-12.26z" stroke="#3a414a" stroke-width=".05" fill="#3a414a"/><g><use xlink:href="#O" transform="matrix(1,0,0,1,2535.409905042957,913.4572863396927) translate(0 16)"/></g><path d="M3446.34 1078.66h-108.96v-.95h108.96zm330.17-6.46l-.07 1-.24.98-.4.94-.53.87-.66.76-.76.66-.87.53-.93.4-1 .23-1 .08h-139.37v-.95h139.35l.88-.06.84-.2.8-.34.74-.45.66-.56.56-.67.46-.74.33-.8.2-.85.06-.9V917.88h.95z" stroke="#3a414a" stroke-width=".05" fill="#3a414a"/><path d="M3776.5 917.9h-.94v-.52h.95z" fill="#3a414a"/><path stroke="#3a414a" stroke-width=".05" fill="#3a414a"/><path d="M3336.88 1082.82l-14.26-4.64 14.26-4.63z" fill="#3a414a"/><path d="M3337.36 1083.47l-16.28-5.3 16.28-5.28zm-13.2-5.3l12.25 4v-7.97z" stroke="#3a414a" stroke-width=".05" fill="#3a414a"/><g><use xlink:href="#P" transform="matrix(1,0,0,1,3446.337067161129,1066.182439373785) translate(0 16)"/></g><path d="M3455.22 1128.08h-117.84v-.95h117.84zm467.73-6.45l-.08 1-.23.98-.4.95-.52.86-.66.8-.78.65-.86.53-.94.4-1 .22-.98.08h-279.94v-.95h279.9l.88-.07.84-.2.8-.33.74-.45.66-.57.57-.65.45-.74.33-.8.2-.83.07-.88V917.87h.95z" stroke="#3a414a" stroke-width=".05" fill="#3a414a"/><path d="M3922.95 917.9h-.95v-.52h.95z" fill="#3a414a"/><path stroke="#3a414a" stroke-width=".05" fill="#3a414a"/><path d="M3336.88 1132.24l-14.26-4.63 14.26-4.63z" fill="#3a414a"/><path d="M3337.36 1132.9l-16.28-5.3 16.28-5.28zm-13.2-5.3l12.25 4v-7.97z" stroke="#3a414a" stroke-width=".05" fill="#3a414a"/><g><use xlink:href="#Q" transform="matrix(1,0,0,1,3455.223304562834,1115.6067615076836) translate(0 16)"/></g><path d="M3098.5 1135h-115.72a6 6 0 0 1-6-6V963.76" stroke="#3a414a" fill="none"/><path d="M3099 1135.48h-.5v-.95h.5z" stroke="#3a414a" stroke-width=".05" fill="#3a414a"/><path d="M2976.78 949l4.63 14.26h-9.26z" stroke="#3a414a" fill="#3a414a"/><path d="M3098.5 1089.36h-33.7a6 6 0 0 1-6-6v-119.6" stroke="#3a414a" fill="none"/><path d="M3099 1089.83h-.5v-.95h.5z" stroke="#3a414a" stroke-width=".05" fill="#3a414a"/><path d="M3058.8 949l4.62 14.26h-9.27z" stroke="#3a414a" fill="#3a414a"/><path d="M2110.13 861.75l.07.9.2.83.34.8.45.74.55.66.66.56.75.46.8.33.84.2.88.07h373.73v.95h-373.76l-1-.08-.98-.24-.94-.4-.87-.52-.77-.65-.66-.77-.53-.87-.4-.93-.24-.98-.08-1v-49.92h.95zm848.37 5.55v.95h-268.75v-.95z" stroke="#3a414a" stroke-width=".05" fill="#3a414a"/><path d="M2959 868.25h-.5v-.95h.5z" fill="#3a414a"/><path stroke="#3a414a" stroke-width=".05" fill="#3a414a"/><path d="M2114.3 811.38H2105l4.64-14.26z" fill="#3a414a"/><path d="M2114.95 811.86h-10.58l5.3-16.28zm-9.27-.95h7.96l-3.98-12.25z" stroke="#3a414a" stroke-width=".05" fill="#3a414a"/><g><use xlink:href="#R" transform="matrix(1,0,0,1,2489.405430927518,856.3065313631461) translate(0 15.288888888888884)"/></g><path d="M3040 824.88v-133" stroke="#3a414a" fill="none"/><path d="M3040.47 825.38h-.94v-.52h.94z" stroke="#3a414a" stroke-width=".05" fill="#3a414a"/><path d="M3040 677.12l4.64 14.26h-9.28z" stroke="#3a414a" fill="#3a414a"/><path d="M2958.5 583.14h-691.47" stroke="#3a414a" fill="none"/><path d="M2959 583.6h-.5v-.94h.5z" stroke="#3a414a" stroke-width=".05" fill="#3a414a"/><path d="M2252.28 583.14l14.26-4.64v9.27z" stroke="#3a414a" fill="#3a414a"/><path d="M2958.5 663.9h-62.48l-.88.06-.85.2-.8.34-.75.45-.66.56-.57.67-.45.74-.33.8-.2.85-.08.9v405.45l-.07 1-.24 1-.4.92-.52.87-.66.76-.77.66-.86.54-.94.38-1 .24-.98.08h-370.2v-.95h370.16l.88-.06.85-.2.8-.33.75-.45.66-.56.57-.67.45-.74.33-.8.2-.85.08-.88V669.4l.07-1 .24-.98.4-.94.52-.87.66-.76.77-.66.86-.53.94-.4 1-.23.98-.07h62.52z" stroke="#3a414a" stroke-width=".05" fill="#3a414a"/><path d="M2959 663.9h-.5v-.95h.5z" fill="#3a414a"/><path stroke="#3a414a" stroke-width=".05" fill="#3a414a"/><path d="M2513.32 1085.52l-14.26-4.63 14.26-4.65z" fill="#3a414a"/><path d="M2513.8 1086.17l-16.28-5.3 16.28-5.27zm-13.2-5.3l12.25 4v-7.97z" stroke="#3a414a" stroke-width=".05" fill="#3a414a"/><path d="M2958.5 620H2806a6 6 0 0 0-6 6v92.5a6 6 0 0 1-6 6h-136.62" stroke="#3a414a" fill="none"/><path d="M2959 620.48h-.5v-.96h.5z" stroke="#3a414a" stroke-width=".05" fill="#3a414a"/><path d="M2642.62 724.5l14.26-4.63v9.26z" stroke="#3a414a" fill="#3a414a"/><defs><path fill="#3a414a" d="M266 0h-40l-56-210L115 0H75L2-248h35L96-30l15-64 43-154h32l59 218 59-218h35" id="S"/><path fill="#3a414a" d="M100-194c62-1 85 37 85 99 1 63-27 99-86 99S16-35 15-95c0-66 28-99 85-99zM99-20c44 1 53-31 53-75 0-43-8-75-51-75s-53 32-53 75 10 74 51 75" id="T"/><path fill="#3a414a" d="M114-163C36-179 61-72 57 0H25l-1-190h30c1 12-1 29 2 39 6-27 23-49 58-41v29" id="U"/><path fill="#3a414a" d="M143 0L79-87 56-68V0H24v-261h32v163l83-92h37l-77 82L181 0h-38" id="V"/><g id="a"><use transform="matrix(0.06172839506172839,0,0,0.06172839506172839,0,0)" xlink:href="#S"/><use transform="matrix(0.06172839506172839,0,0,0.06172839506172839,20.493827160493826,0)" xlink:href="#T"/><use transform="matrix(0.06172839506172839,0,0,0.06172839506172839,32.839506172839506,0)" xlink:href="#U"/><use transform="matrix(0.06172839506172839,0,0,0.06172839506172839,40.18518518518518,0)" xlink:href="#V"/></g><path fill="#3a414a" d="M30 0v-248h33v221h125V0H30" id="W"/><path fill="#3a414a" d="M141-36C126-15 110 5 73 4 37 3 15-17 15-53c-1-64 63-63 125-63 3-35-9-54-41-54-24 1-41 7-42 31l-33-3c5-37 33-52 76-52 45 0 72 20 72 64v82c-1 20 7 32 28 27v20c-31 9-61-2-59-35zM48-53c0 20 12 33 32 33 41-3 63-29 60-74-43 2-92-5-92 41" id="X"/><path fill="#3a414a" d="M115-194c55 1 70 41 70 98S169 2 115 4C84 4 66-9 55-30l1 105H24l-1-265h31l2 30c10-21 28-34 59-34zm-8 174c40 0 45-34 45-75s-6-73-45-74c-42 0-51 32-51 76 0 43 10 73 51 73" id="Y"/><path fill="#3a414a" d="M59-47c-2 24 18 29 38 22v24C64 9 27 4 27-40v-127H5v-23h24l9-43h21v43h35v23H59v120" id="Z"/><g id="b"><use transform="matrix(0.06172839506172839,0,0,0.06172839506172839,0,0)" xlink:href="#W"/><use transform="matrix(0.06172839506172839,0,0,0.06172839506172839,12.345679012345679,0)" xlink:href="#X"/><use transform="matrix(0.06172839506172839,0,0,0.06172839506172839,24.691358024691358,0)" xlink:href="#Y"/><use transform="matrix(0.06172839506172839,0,0,0.06172839506172839,37.03703703703704,0)" xlink:href="#Z"/><use transform="matrix(0.06172839506172839,0,0,0.06172839506172839,43.20987654320988,0)" xlink:href="#T"/><use transform="matrix(0.06172839506172839,0,0,0.06172839506172839,55.55555555555556,0)" xlink:href="#Y"/></g><path fill="#3a414a" d="M87 75C49 33 22-17 22-94c0-76 28-126 65-167h31c-38 41-64 92-64 168S80 34 118 75H87" id="aa"/><use transform="matrix(0.06172839506172839,0,0,0.06172839506172839,0,0)" xlink:href="#aa" id="c"/><path fill="#3a414a" d="M240 0l2-218c-23 76-54 145-80 218h-23L58-218 59 0H30v-248h44l77 211c21-75 51-140 76-211h43V0h-30" id="ab"/><path fill="#3a414a" d="M96-169c-40 0-48 33-48 73s9 75 48 75c24 0 41-14 43-38l32 2c-6 37-31 61-74 61-59 0-76-41-82-99-10-93 101-131 147-64 4 7 5 14 7 22l-32 3c-4-21-16-35-41-35" id="ac"/><g id="d"><use transform="matrix(0.06172839506172839,0,0,0.06172839506172839,0,0)" xlink:href="#ab"/><use transform="matrix(0.06172839506172839,0,0,0.06172839506172839,18.456790123456788,0)" xlink:href="#X"/><use transform="matrix(0.06172839506172839,0,0,0.06172839506172839,30.80246913580247,0)" xlink:href="#ac"/></g><path fill="#3a414a" d="M33-261c38 41 65 92 65 168S71 34 33 75H2C39 34 66-17 66-93S39-220 2-261h31" id="ad"/><use transform="matrix(0.06172839506172839,0,0,0.06172839506172839,0,0)" xlink:href="#ad" id="e"/><path fill="#3a414a" d="M143 4C61 4 22-44 18-125c-5-107 100-154 193-111 17 8 29 25 37 43l-32 9c-13-25-37-40-76-40-61 0-88 39-88 99 0 61 29 100 91 101 35 0 62-11 79-27v-45h-74v-28h105v86C228-13 192 4 143 4" id="ae"/><path fill="#3a414a" d="M24-231v-30h32v30H24zM24 0v-190h32V0H24" id="af"/><path fill="#3a414a" d="M197 0v-115H63V0H30v-248h33v105h134v-105h34V0h-34" id="ag"/><path fill="#3a414a" d="M84 4C-5 8 30-112 23-190h32v120c0 31 7 50 39 49 72-2 45-101 50-169h31l1 190h-30c-1-10 1-25-2-33-11 22-28 36-60 37" id="ah"/><path fill="#3a414a" d="M115-194c53 0 69 39 70 98 0 66-23 100-70 100C84 3 66-7 56-30L54 0H23l1-261h32v101c10-23 28-34 59-34zm-8 174c40 0 45-34 45-75 0-40-5-75-45-74-42 0-51 32-51 76 0 43 10 73 51 73" id="ai"/><g id="f"><use transform="matrix(0.06172839506172839,0,0,0.06172839506172839,0,0)" xlink:href="#ae"/><use transform="matrix(0.06172839506172839,0,0,0.06172839506172839,17.28395061728395,0)" xlink:href="#af"/><use transform="matrix(0.06172839506172839,0,0,0.06172839506172839,22.160493827160494,0)" xlink:href="#Z"/><use transform="matrix(0.06172839506172839,0,0,0.06172839506172839,28.333333333333332,0)" xlink:href="#ag"/><use transform="matrix(0.06172839506172839,0,0,0.06172839506172839,44.32098765432099,0)" xlink:href="#ah"/><use transform="matrix(0.06172839506172839,0,0,0.06172839506172839,56.666666666666664,0)" xlink:href="#ai"/></g><path fill="#3a414a" d="M33 0v-248h34V0H33" id="aj"/><path fill="#3a414a" d="M117-194c89-4 53 116 60 194h-32v-121c0-31-8-49-39-48C34-167 62-67 57 0H25l-1-190h30c1 10-1 24 2 32 11-22 29-35 61-36" id="ak"/><path fill="#3a414a" d="M100-194c63 0 86 42 84 106H49c0 40 14 67 53 68 26 1 43-12 49-29l28 8c-11 28-37 45-77 45C44 4 14-33 15-96c1-61 26-98 85-98zm52 81c6-60-76-77-97-28-3 7-6 17-6 28h103" id="al"/><g id="g"><use transform="matrix(0.06172839506172839,0,0,0.06172839506172839,0,0)" xlink:href="#aj"/><use transform="matrix(0.06172839506172839,0,0,0.06172839506172839,6.172839506172839,0)" xlink:href="#ak"/><use transform="matrix(0.06172839506172839,0,0,0.06172839506172839,18.51851851851852,0)" xlink:href="#Z"/><use transform="matrix(0.06172839506172839,0,0,0.06172839506172839,24.691358024691358,0)" xlink:href="#al"/><use transform="matrix(0.06172839506172839,0,0,0.06172839506172839,37.03703703703704,0)" xlink:href="#U"/><use transform="matrix(0.06172839506172839,0,0,0.06172839506172839,44.382716049382715,0)" xlink:href="#ak"/><use transform="matrix(0.06172839506172839,0,0,0.06172839506172839,56.72839506172839,0)" xlink:href="#al"/><use transform="matrix(0.06172839506172839,0,0,0.06172839506172839,69.07407407407408,0)" xlink:href="#Z"/></g><path fill="#3a414a" d="M137 0h-34L2-248h35l83 218 83-218h36" id="am"/><g id="h"><use transform="matrix(0.06172839506172839,0,0,0.06172839506172839,0,0)" xlink:href="#am"/><use transform="matrix(0.06172839506172839,0,0,0.06172839506172839,14.814814814814813,0)" xlink:href="#ab"/></g><path fill="#222" d="M160-131c35 5 61 23 61 61C221 17 115-2 30 0v-248c76 3 177-17 177 60 0 33-19 50-47 57zm-97-11c50-1 110 9 110-42 0-47-63-36-110-37v79zm0 115c55-2 124 14 124-45 0-56-70-42-124-44v89" id="an"/><path fill="#222" d="M114-163C36-179 61-72 57 0H25l-1-190h30c1 12-1 29 2 39 6-27 23-49 58-41v29" id="ao"/><path fill="#222" d="M24-231v-30h32v30H24zM24 0v-190h32V0H24" id="ap"/><path fill="#222" d="M85-194c31 0 48 13 60 33l-1-100h32l1 261h-30c-2-10 0-23-3-31C134-8 116 4 85 4 32 4 16-35 15-94c0-66 23-100 70-100zm9 24c-40 0-46 34-46 75 0 40 6 74 45 74 42 0 51-32 51-76 0-42-9-74-50-73" id="aq"/><path fill="#222" d="M177-190C167-65 218 103 67 71c-23-6-38-20-44-43l32-5c15 47 100 32 89-28v-30C133-14 115 1 83 1 29 1 15-40 15-95c0-56 16-97 71-98 29-1 48 16 59 35 1-10 0-23 2-32h30zM94-22c36 0 50-32 50-73 0-42-14-75-50-75-39 0-46 34-46 75s6 73 46 73" id="ar"/><path fill="#222" d="M100-194c63 0 86 42 84 106H49c0 40 14 67 53 68 26 1 43-12 49-29l28 8c-11 28-37 45-77 45C44 4 14-33 15-96c1-61 26-98 85-98zm52 81c6-60-76-77-97-28-3 7-6 17-6 28h103" id="as"/><g id="i"><use transform="matrix(0.05925925925925927,0,0,0.05925925925925927,0,0)" xlink:href="#an"/><use transform="matrix(0.05925925925925927,0,0,0.05925925925925927,14.222222222222225,0)" xlink:href="#ao"/><use transform="matrix(0.05925925925925927,0,0,0.05925925925925927,21.27407407407408,0)" xlink:href="#ap"/><use transform="matrix(0.05925925925925927,0,0,0.05925925925925927,25.955555555555563,0)" xlink:href="#aq"/><use transform="matrix(0.05925925925925927,0,0,0.05925925925925927,37.80740740740742,0)" xlink:href="#ar"/><use transform="matrix(0.05925925925925927,0,0,0.05925925925925927,49.65925925925927,0)" xlink:href="#as"/><use transform="matrix(0.05925925925925927,0,0,0.05925925925925927,61.51111111111112,0)" xlink:href="#aq"/></g><path fill="#222" d="M190 0L58-211 59 0H30v-248h39L202-35l-2-213h31V0h-41" id="at"/><path fill="#222" d="M59-47c-2 24 18 29 38 22v24C64 9 27 4 27-40v-127H5v-23h24l9-43h21v43h35v23H59v120" id="au"/><path fill="#222" d="M206 0h-36l-40-164L89 0H53L-1-190h32L70-26l43-164h34l41 164 42-164h31" id="av"/><path fill="#222" d="M100-194c62-1 85 37 85 99 1 63-27 99-86 99S16-35 15-95c0-66 28-99 85-99zM99-20c44 1 53-31 53-75 0-43-8-75-51-75s-53 32-53 75 10 74 51 75" id="aw"/><path fill="#222" d="M143 0L79-87 56-68V0H24v-261h32v163l83-92h37l-77 82L181 0h-38" id="ax"/><g id="j"><use transform="matrix(0.05925925925925927,0,0,0.05925925925925927,0,0)" xlink:href="#at"/><use transform="matrix(0.05925925925925927,0,0,0.05925925925925927,15.34814814814815,0)" xlink:href="#as"/><use transform="matrix(0.05925925925925927,0,0,0.05925925925925927,27.200000000000003,0)" xlink:href="#au"/><use transform="matrix(0.05925925925925927,0,0,0.05925925925925927,33.12592592592593,0)" xlink:href="#av"/><use transform="matrix(0.05925925925925927,0,0,0.05925925925925927,48.474074074074075,0)" xlink:href="#aw"/><use transform="matrix(0.05925925925925927,0,0,0.05925925925925927,60.32592592592593,0)" xlink:href="#ao"/><use transform="matrix(0.05925925925925927,0,0,0.05925925925925927,67.37777777777778,0)" xlink:href="#ax"/></g><path fill="#3a414a" d="M210-169c-67 3-38 105-44 169h-31v-121c0-29-5-50-35-48C34-165 62-65 56 0H25l-1-190h30c1 10-1 24 2 32 10-44 99-50 107 0 11-21 27-35 58-36 85-2 47 119 55 194h-31v-121c0-29-5-49-35-48" id="ay"/><path fill="#3a414a" d="M24 0v-261h32V0H24" id="az"/><g id="k"><use transform="matrix(0.06172839506172839,0,0,0.06172839506172839,0,0)" xlink:href="#ag"/><use transform="matrix(0.06172839506172839,0,0,0.06172839506172839,15.987654320987653,0)" xlink:href="#T"/><use transform="matrix(0.06172839506172839,0,0,0.06172839506172839,28.333333333333332,0)" xlink:href="#ay"/><use transform="matrix(0.06172839506172839,0,0,0.06172839506172839,46.79012345679012,0)" xlink:href="#al"/><use transform="matrix(0.06172839506172839,0,0,0.06172839506172839,59.1358024691358,0)" xlink:href="#az"/><use transform="matrix(0.06172839506172839,0,0,0.06172839506172839,64.01234567901234,0)" xlink:href="#X"/><use transform="matrix(0.06172839506172839,0,0,0.06172839506172839,76.35802469135803,0)" xlink:href="#ai"/></g><path fill="#3a414a" d="M30-248c118-7 216 8 213 122C240-48 200 0 122 0H30v-248zM63-27c89 8 146-16 146-99s-60-101-146-95v194" id="aA"/><g id="l"><use transform="matrix(0.06172839506172839,0,0,0.06172839506172839,0,0)" xlink:href="#aA"/><use transform="matrix(0.06172839506172839,0,0,0.06172839506172839,15.987654320987653,0)" xlink:href="#al"/><use transform="matrix(0.06172839506172839,0,0,0.06172839506172839,28.333333333333332,0)" xlink:href="#ai"/><use transform="matrix(0.06172839506172839,0,0,0.06172839506172839,40.67901234567901,0)" xlink:href="#af"/><use transform="matrix(0.06172839506172839,0,0,0.06172839506172839,45.55555555555556,0)" xlink:href="#X"/><use transform="matrix(0.06172839506172839,0,0,0.06172839506172839,57.901234567901234,0)" xlink:href="#ak"/></g><path fill="#3a414a" d="M27 0v-27h64v-190l-56 39v-29l58-41h29v221h61V0H27" id="aB"/><path fill="#3a414a" d="M101-251c82-7 93 87 43 132L82-64C71-53 59-42 53-27h129V0H18c2-99 128-94 128-182 0-28-16-43-45-43s-46 15-49 41l-32-3c6-41 34-60 81-64" id="aC"/><g id="m"><use transform="matrix(0.06172839506172839,0,0,0.06172839506172839,0,0)" xlink:href="#aB"/><use transform="matrix(0.06172839506172839,0,0,0.06172839506172839,12.345679012345679,0)" xlink:href="#aC"/></g><path fill="#3a414a" d="M135-143c-3-34-86-38-87 0 15 53 115 12 119 90S17 21 10-45l28-5c4 36 97 45 98 0-10-56-113-15-118-90-4-57 82-63 122-42 12 7 21 19 24 35" id="aD"/><path fill="#3a414a" d="M106-169C34-169 62-67 57 0H25v-261h32l-1 103c12-21 28-36 61-36 89 0 53 116 60 194h-32v-121c2-32-8-49-39-48" id="aE"/><g id="n"><use transform="matrix(0.06172839506172839,0,0,0.06172839506172839,0,0)" xlink:href="#aD"/><use transform="matrix(0.06172839506172839,0,0,0.06172839506172839,11.11111111111111,0)" xlink:href="#aD"/><use transform="matrix(0.06172839506172839,0,0,0.06172839506172839,22.22222222222222,0)" xlink:href="#aE"/></g><g id="o"><use transform="matrix(0.06172839506172839,0,0,0.06172839506172839,0,0)" xlink:href="#Y"/><use transform="matrix(0.06172839506172839,0,0,0.06172839506172839,12.345679012345679,0)" xlink:href="#T"/><use transform="matrix(0.06172839506172839,0,0,0.06172839506172839,24.691358024691358,0)" xlink:href="#U"/><use transform="matrix(0.06172839506172839,0,0,0.06172839506172839,32.03703703703704,0)" xlink:href="#Z"/></g><path fill="#3a414a" d="M101-234c-31-9-42 10-38 44h38v23H63V0H32v-167H5v-23h27c-7-52 17-82 69-68v24" id="aF"/><path fill="#3a414a" d="M206 0h-36l-40-164L89 0H53L-1-190h32L70-26l43-164h34l41 164 42-164h31" id="aG"/><path fill="#3a414a" d="M85-194c31 0 48 13 60 33l-1-100h32l1 261h-30c-2-10 0-23-3-31C134-8 116 4 85 4 32 4 16-35 15-94c0-66 23-100 70-100zm9 24c-40 0-46 34-46 75 0 40 6 74 45 74 42 0 51-32 51-76 0-42-9-74-50-73" id="aH"/><g id="p"><use transform="matrix(0.06172839506172839,0,0,0.06172839506172839,0,0)" xlink:href="#aF"/><use transform="matrix(0.06172839506172839,0,0,0.06172839506172839,6.172839506172839,0)" xlink:href="#T"/><use transform="matrix(0.06172839506172839,0,0,0.06172839506172839,18.51851851851852,0)" xlink:href="#aG"/><use transform="matrix(0.06172839506172839,0,0,0.06172839506172839,34.50617283950617,0)" xlink:href="#X"/><use transform="matrix(0.06172839506172839,0,0,0.06172839506172839,46.85185185185185,0)" xlink:href="#U"/><use transform="matrix(0.06172839506172839,0,0,0.06172839506172839,54.197530864197525,0)" xlink:href="#aH"/></g><path fill="#3a414a" d="M190 0L58-211 59 0H30v-248h39L202-35l-2-213h31V0h-41" id="aI"/><path fill="#3a414a" d="M33-154v-36h34v36H33zM33 0v-36h34V0H33" id="aJ"/><g id="q"><use transform="matrix(0.06172839506172839,0,0,0.06172839506172839,0,0)" xlink:href="#aI"/><use transform="matrix(0.06172839506172839,0,0,0.06172839506172839,15.987654320987653,0)" xlink:href="#al"/><use transform="matrix(0.06172839506172839,0,0,0.06172839506172839,28.333333333333332,0)" xlink:href="#Z"/><use transform="matrix(0.06172839506172839,0,0,0.06172839506172839,34.50617283950617,0)" xlink:href="#aG"/><use transform="matrix(0.06172839506172839,0,0,0.06172839506172839,50.49382716049382,0)" xlink:href="#T"/><use transform="matrix(0.06172839506172839,0,0,0.06172839506172839,62.8395061728395,0)" xlink:href="#U"/><use transform="matrix(0.06172839506172839,0,0,0.06172839506172839,70.18518518518518,0)" xlink:href="#V"/><use transform="matrix(0.06172839506172839,0,0,0.06172839506172839,81.29629629629629,0)" xlink:href="#aJ"/></g><path fill="#3a414a" d="M80-196l47-18 7 23-49 13 32 44-20 13-27-46-27 45-21-12 33-44-49-13 8-23 47 19-2-53h23" id="aK"/><path fill="#3a414a" d="M33 0v-38h34V0H33" id="aL"/><path fill="#3a414a" d="M108 0H70L1-190h34L89-25l56-165h34" id="aM"/><g id="r"><use transform="matrix(0.06172839506172839,0,0,0.06172839506172839,0,0)" xlink:href="#aK"/><use transform="matrix(0.06172839506172839,0,0,0.06172839506172839,8.641975308641975,0)" xlink:href="#aL"/><use transform="matrix(0.06172839506172839,0,0,0.06172839506172839,14.814814814814813,0)" xlink:href="#az"/><use transform="matrix(0.06172839506172839,0,0,0.06172839506172839,19.691358024691354,0)" xlink:href="#af"/><use transform="matrix(0.06172839506172839,0,0,0.06172839506172839,24.5679012345679,0)" xlink:href="#ai"/><use transform="matrix(0.06172839506172839,0,0,0.06172839506172839,36.913580246913575,0)" xlink:href="#aM"/><use transform="matrix(0.06172839506172839,0,0,0.06172839506172839,48.02469135802468,0)" xlink:href="#af"/><use transform="matrix(0.06172839506172839,0,0,0.06172839506172839,52.90123456790123,0)" xlink:href="#U"/><use transform="matrix(0.06172839506172839,0,0,0.06172839506172839,60.246913580246904,0)" xlink:href="#Z"/></g><path fill="#3a414a" d="M194 0L95-120 63-95V0H30v-248h33v124l119-124h40L117-140 236 0h-42" id="aN"/><g id="s"><use transform="matrix(0.06172839506172839,0,0,0.06172839506172839,0,0)" xlink:href="#aN"/><use transform="matrix(0.06172839506172839,0,0,0.06172839506172839,14.814814814814813,0)" xlink:href="#am"/><use transform="matrix(0.06172839506172839,0,0,0.06172839506172839,29.629629629629626,0)" xlink:href="#ab"/></g><path fill="#3a414a" d="M145-31C134-9 116 4 85 4 32 4 16-35 15-94c0-59 17-99 70-100 32-1 48 14 60 33 0-11-1-24 2-32h30l-1 268h-32zM93-21c41 0 51-33 51-76s-8-73-50-73c-40 0-46 35-46 75s5 74 45 74" id="aO"/><g id="t"><use transform="matrix(0.06172839506172839,0,0,0.06172839506172839,0,0)" xlink:href="#aO"/><use transform="matrix(0.06172839506172839,0,0,0.06172839506172839,12.345679012345679,0)" xlink:href="#al"/><use transform="matrix(0.06172839506172839,0,0,0.06172839506172839,24.691358024691358,0)" xlink:href="#ay"/><use transform="matrix(0.06172839506172839,0,0,0.06172839506172839,43.148148148148145,0)" xlink:href="#ah"/></g><path fill="#3a414a" d="M118-107v75H92v-75H18v-26h74v-75h26v75h74v26h-74" id="aP"/><use transform="matrix(0.06172839506172839,0,0,0.06172839506172839,0,0)" xlink:href="#aP" id="u"/><g id="v"><use transform="matrix(0.06172839506172839,0,0,0.06172839506172839,0,0)" xlink:href="#az"/><use transform="matrix(0.06172839506172839,0,0,0.06172839506172839,4.876543209876543,0)" xlink:href="#af"/><use transform="matrix(0.06172839506172839,0,0,0.06172839506172839,9.753086419753085,0)" xlink:href="#ai"/><use transform="matrix(0.06172839506172839,0,0,0.06172839506172839,22.098765432098766,0)" xlink:href="#aM"/><use transform="matrix(0.06172839506172839,0,0,0.06172839506172839,33.20987654320987,0)" xlink:href="#af"/><use transform="matrix(0.06172839506172839,0,0,0.06172839506172839,38.08641975308642,0)" xlink:href="#U"/><use transform="matrix(0.06172839506172839,0,0,0.06172839506172839,45.432098765432094,0)" xlink:href="#Z"/></g><g id="w"><use transform="matrix(0.06172839506172839,0,0,0.06172839506172839,0,0)" xlink:href="#ac"/><use transform="matrix(0.06172839506172839,0,0,0.06172839506172839,11.11111111111111,0)" xlink:href="#ai"/><use transform="matrix(0.06172839506172839,0,0,0.06172839506172839,23.45679012345679,0)" xlink:href="#ah"/><use transform="matrix(0.06172839506172839,0,0,0.06172839506172839,35.80246913580247,0)" xlink:href="#af"/><use transform="matrix(0.06172839506172839,0,0,0.06172839506172839,40.67901234567901,0)" xlink:href="#az"/><use transform="matrix(0.06172839506172839,0,0,0.06172839506172839,45.55555555555556,0)" xlink:href="#aH"/></g><g id="x"><use transform="matrix(0.06172839506172839,0,0,0.06172839506172839,0,0)" xlink:href="#aA"/><use transform="matrix(0.06172839506172839,0,0,0.06172839506172839,15.987654320987653,0)" xlink:href="#T"/><use transform="matrix(0.06172839506172839,0,0,0.06172839506172839,28.333333333333332,0)" xlink:href="#ac"/><use transform="matrix(0.06172839506172839,0,0,0.06172839506172839,39.44444444444444,0)" xlink:href="#V"/><use transform="matrix(0.06172839506172839,0,0,0.06172839506172839,50.55555555555556,0)" xlink:href="#al"/><use transform="matrix(0.06172839506172839,0,0,0.06172839506172839,62.901234567901234,0)" xlink:href="#U"/></g><path fill="#3a414a" d="M153-248C145-148 188 4 80 4 36 3 13-21 6-62l32-5c4 25 16 42 43 43 27 0 39-20 39-49v-147H72v-28h81" id="aQ"/><g id="y"><use transform="matrix(0.06172839506172839,0,0,0.06172839506172839,0,0)" xlink:href="#aQ"/><use transform="matrix(0.06172839506172839,0,0,0.06172839506172839,11.11111111111111,0)" xlink:href="#al"/><use transform="matrix(0.06172839506172839,0,0,0.06172839506172839,23.45679012345679,0)" xlink:href="#ak"/><use transform="matrix(0.06172839506172839,0,0,0.06172839506172839,35.80246913580247,0)" xlink:href="#V"/><use transform="matrix(0.06172839506172839,0,0,0.06172839506172839,46.91358024691358,0)" xlink:href="#af"/><use transform="matrix(0.06172839506172839,0,0,0.06172839506172839,51.79012345679013,0)" xlink:href="#ak"/><use transform="matrix(0.06172839506172839,0,0,0.06172839506172839,64.13580246913581,0)" xlink:href="#aD"/></g><path fill="#333" d="M137-138c1-29-70-34-71-4 15 46 118 7 119 86 1 83-164 76-172 9l43-7c4 19 20 25 44 25 33 8 57-30 24-41C81-84 22-81 20-136c-2-80 154-74 161-7" id="aR"/><path fill="#333" d="M114-157C55-157 80-60 75 0H25v-261h50l-1 109c12-26 28-41 61-42 86-1 58 113 63 194h-50c-7-57 23-157-34-157" id="aS"/><g id="z"><use transform="matrix(0.04938271604938272,0,0,0.04938271604938272,0,0)" xlink:href="#aR"/><use transform="matrix(0.04938271604938272,0,0,0.04938271604938272,9.876543209876544,0)" xlink:href="#aR"/><use transform="matrix(0.04938271604938272,0,0,0.04938271604938272,19.75308641975309,0)" xlink:href="#aS"/></g><path fill="#333" d="M190-63c-7 42-38 67-86 67-59 0-84-38-90-98-12-110 154-137 174-36l-49 2c-2-19-15-32-35-32-30 0-35 28-38 64-6 74 65 87 74 30" id="aT"/><path fill="#333" d="M135-194c53 0 70 44 70 98 0 56-19 98-73 100-31 1-45-17-59-34 3 33 2 69 2 105H25l-1-265h48c2 10 0 23 3 31 11-24 29-35 60-35zM114-30c33 0 39-31 40-66 0-38-9-64-40-64-56 0-55 130 0 130" id="aU"/><g id="A"><use transform="matrix(0.04938271604938272,0,0,0.04938271604938272,0,0)" xlink:href="#aR"/><use transform="matrix(0.04938271604938272,0,0,0.04938271604938272,9.876543209876544,0)" xlink:href="#aT"/><use transform="matrix(0.04938271604938272,0,0,0.04938271604938272,19.75308641975309,0)" xlink:href="#aU"/></g><g id="B"><use transform="matrix(0.06172839506172839,0,0,0.06172839506172839,0,0)" xlink:href="#ac"/><use transform="matrix(0.06172839506172839,0,0,0.06172839506172839,11.11111111111111,0)" xlink:href="#Y"/><use transform="matrix(0.06172839506172839,0,0,0.06172839506172839,23.45679012345679,0)" xlink:href="#U"/><use transform="matrix(0.06172839506172839,0,0,0.06172839506172839,30.80246913580247,0)" xlink:href="#T"/><use transform="matrix(0.06172839506172839,0,0,0.06172839506172839,43.148148148148145,0)" xlink:href="#aH"/></g><path fill="#3a414a" d="M127-220V0H93v-220H8v-28h204v28h-85" id="aV"/><g id="C"><use transform="matrix(0.06172839506172839,0,0,0.06172839506172839,0,0)" xlink:href="#aV"/><use transform="matrix(0.06172839506172839,0,0,0.06172839506172839,12.716049382716047,0)" xlink:href="#af"/><use transform="matrix(0.06172839506172839,0,0,0.06172839506172839,17.592592592592588,0)" xlink:href="#ay"/><use transform="matrix(0.06172839506172839,0,0,0.06172839506172839,36.04938271604938,0)" xlink:href="#al"/></g><path fill="#3a414a" d="M212-179c-10-28-35-45-73-45-59 0-87 40-87 99 0 60 29 101 89 101 43 0 62-24 78-52l27 14C228-24 195 4 139 4 59 4 22-46 18-125c-6-104 99-153 187-111 19 9 31 26 39 46" id="aW"/><path fill="#3a414a" d="M179-190L93 31C79 59 56 82 12 73V49c39 6 53-20 64-50L1-190h34L92-34l54-156h33" id="aX"/><g id="D"><use transform="matrix(0.06172839506172839,0,0,0.06172839506172839,0,0)" xlink:href="#aW"/><use transform="matrix(0.06172839506172839,0,0,0.06172839506172839,15.987654320987653,0)" xlink:href="#af"/><use transform="matrix(0.06172839506172839,0,0,0.06172839506172839,20.864197530864196,0)" xlink:href="#Z"/><use transform="matrix(0.06172839506172839,0,0,0.06172839506172839,27.037037037037035,0)" xlink:href="#aX"/></g><path fill="#3a414a" d="M185-189c-5-48-123-54-124 2 14 75 158 14 163 119 3 78-121 87-175 55-17-10-28-26-33-46l33-7c5 56 141 63 141-1 0-78-155-14-162-118-5-82 145-84 179-34 5 7 8 16 11 25" id="aY"/><g id="E"><use transform="matrix(0.06172839506172839,0,0,0.06172839506172839,0,0)" xlink:href="#aY"/><use transform="matrix(0.06172839506172839,0,0,0.06172839506172839,14.814814814814813,0)" xlink:href="#al"/><use transform="matrix(0.06172839506172839,0,0,0.06172839506172839,27.160493827160494,0)" xlink:href="#U"/><use transform="matrix(0.06172839506172839,0,0,0.06172839506172839,34.50617283950617,0)" xlink:href="#aM"/><use transform="matrix(0.06172839506172839,0,0,0.06172839506172839,45.61728395061728,0)" xlink:href="#al"/><use transform="matrix(0.06172839506172839,0,0,0.06172839506172839,57.962962962962955,0)" xlink:href="#U"/></g><path fill="#3a414a" d="M205 0l-28-72H64L36 0H1l101-248h38L239 0h-34zm-38-99l-47-123c-12 45-31 82-46 123h93" id="aZ"/><path fill="#3a414a" d="M177-190C167-65 218 103 67 71c-23-6-38-20-44-43l32-5c15 47 100 32 89-28v-30C133-14 115 1 83 1 29 1 15-40 15-95c0-56 16-97 71-98 29-1 48 16 59 35 1-10 0-23 2-32h30zM94-22c36 0 50-32 50-73 0-42-14-75-50-75-39 0-46 34-46 75s6 73 46 73" id="ba"/><g id="F"><use transform="matrix(0.06172839506172839,0,0,0.06172839506172839,0,0)" xlink:href="#aZ"/><use transform="matrix(0.06172839506172839,0,0,0.06172839506172839,14.814814814814813,0)" xlink:href="#ba"/><use transform="matrix(0.06172839506172839,0,0,0.06172839506172839,27.160493827160494,0)" xlink:href="#al"/><use transform="matrix(0.06172839506172839,0,0,0.06172839506172839,39.50617283950617,0)" xlink:href="#ak"/><use transform="matrix(0.06172839506172839,0,0,0.06172839506172839,51.85185185185185,0)" xlink:href="#Z"/></g><g id="G"><use transform="matrix(0.06172839506172839,0,0,0.06172839506172839,0,0)" xlink:href="#X"/><use transform="matrix(0.06172839506172839,0,0,0.06172839506172839,12.345679012345679,0)" xlink:href="#ba"/><use transform="matrix(0.06172839506172839,0,0,0.06172839506172839,24.691358024691358,0)" xlink:href="#al"/><use transform="matrix(0.06172839506172839,0,0,0.06172839506172839,37.03703703703704,0)" xlink:href="#ak"/><use transform="matrix(0.06172839506172839,0,0,0.06172839506172839,49.382716049382715,0)" xlink:href="#Z"/></g><g id="H"><use transform="matrix(0.06172839506172839,0,0,0.06172839506172839,0,0)" xlink:href="#aM"/><use transform="matrix(0.06172839506172839,0,0,0.06172839506172839,11.11111111111111,0)" xlink:href="#af"/><use transform="matrix(0.06172839506172839,0,0,0.06172839506172839,15.987654320987653,0)" xlink:href="#U"/><use transform="matrix(0.06172839506172839,0,0,0.06172839506172839,23.333333333333332,0)" xlink:href="#aD"/><use transform="matrix(0.06172839506172839,0,0,0.06172839506172839,34.44444444444444,0)" xlink:href="#aE"/></g><path d="M135-143c-3-34-86-38-87 0 15 53 115 12 119 90S17 21 10-45l28-5c4 36 97 45 98 0-10-56-113-15-118-90-4-57 82-63 122-42 12 7 21 19 24 35" id="bb"/><path d="M106-169C34-169 62-67 57 0H25v-261h32l-1 103c12-21 28-36 61-36 89 0 53 116 60 194h-32v-121c2-32-8-49-39-48" id="bc"/><g id="J"><use transform="matrix(0.0530864197530864,0,0,0.0530864197530864,0,0)" xlink:href="#bb"/><use transform="matrix(0.0530864197530864,0,0,0.0530864197530864,9.555555555555552,0)" xlink:href="#bb"/><use transform="matrix(0.0530864197530864,0,0,0.0530864197530864,19.111111111111104,0)" xlink:href="#bc"/></g><path d="M16-82v-28h88v28H16" id="bd"/><path d="M30 0v-248h33v221h125V0H30" id="be"/><g id="K"><use transform="matrix(0.0530864197530864,0,0,0.0530864197530864,0,0)" xlink:href="#bd"/><use transform="matrix(0.0530864197530864,0,0,0.0530864197530864,6.3172839506172815,0)" xlink:href="#be"/></g><path d="M134-131c28 9 52 24 51 62-1 50-34 73-85 73S17-19 16-69c0-36 21-54 49-61-75-25-45-126 34-121 46 3 78 18 79 63 0 33-17 51-44 57zm-34-11c31 1 46-15 46-44 0-28-17-43-47-42-29 0-46 13-45 42 1 28 16 44 46 44zm1 122c35 0 51-18 51-52 0-30-18-46-53-46-33 0-51 17-51 47 0 34 19 51 53 51" id="bf"/><path d="M101-251c68 0 85 55 85 127S166 4 100 4C33 4 14-52 14-124c0-73 17-127 87-127zm-1 229c47 0 54-49 54-102s-4-102-53-102c-51 0-55 48-55 102 0 53 5 102 54 102" id="bg"/><path d="M33-154v-36h34v36H33zM33 0v-36h34V0H33" id="bh"/><path d="M96-169c-40 0-48 33-48 73s9 75 48 75c24 0 41-14 43-38l32 2c-6 37-31 61-74 61-59 0-76-41-82-99-10-93 101-131 147-64 4 7 5 14 7 22l-32 3c-4-21-16-35-41-35" id="bi"/><path d="M115-194c53 0 69 39 70 98 0 66-23 100-70 100C84 3 66-7 56-30L54 0H23l1-261h32v101c10-23 28-34 59-34zm-8 174c40 0 45-34 45-75 0-40-5-75-45-74-42 0-51 32-51 76 0 43 10 73 51 73" id="bj"/><path d="M84 4C-5 8 30-112 23-190h32v120c0 31 7 50 39 49 72-2 45-101 50-169h31l1 190h-30c-1-10 1-25-2-33-11 22-28 36-60 37" id="bk"/><path d="M24-231v-30h32v30H24zM24 0v-190h32V0H24" id="bl"/><path d="M24 0v-261h32V0H24" id="bm"/><path d="M85-194c31 0 48 13 60 33l-1-100h32l1 261h-30c-2-10 0-23-3-31C134-8 116 4 85 4 32 4 16-35 15-94c0-66 23-100 70-100zm9 24c-40 0-46 34-46 75 0 40 6 74 45 74 42 0 51-32 51-76 0-42-9-74-50-73" id="bn"/><path d="M33 0v-38h34V0H33" id="bo"/><path d="M108 0H70L1-190h34L89-25l56-165h34" id="bp"/><path d="M114-163C36-179 61-72 57 0H25l-1-190h30c1 12-1 29 2 39 6-27 23-49 58-41v29" id="bq"/><path d="M59-47c-2 24 18 29 38 22v24C64 9 27 4 27-40v-127H5v-23h24l9-43h21v43h35v23H59v120" id="br"/><g id="L"><use transform="matrix(0.0530864197530864,0,0,0.0530864197530864,0,0)" xlink:href="#bf"/><use transform="matrix(0.0530864197530864,0,0,0.0530864197530864,10.61728395061728,0)" xlink:href="#bg"/><use transform="matrix(0.0530864197530864,0,0,0.0530864197530864,21.23456790123456,0)" xlink:href="#bf"/><use transform="matrix(0.0530864197530864,0,0,0.0530864197530864,31.85185185185184,0)" xlink:href="#bg"/><use transform="matrix(0.0530864197530864,0,0,0.0530864197530864,42.46913580246912,0)" xlink:href="#bh"/><use transform="matrix(0.0530864197530864,0,0,0.0530864197530864,47.77777777777776,0)" xlink:href="#bi"/><use transform="matrix(0.0530864197530864,0,0,0.0530864197530864,57.3333333333333,0)" xlink:href="#bj"/><use transform="matrix(0.0530864197530864,0,0,0.0530864197530864,67.95061728395059,0)" xlink:href="#bk"/><use transform="matrix(0.0530864197530864,0,0,0.0530864197530864,78.56790123456787,0)" xlink:href="#bl"/><use transform="matrix(0.0530864197530864,0,0,0.0530864197530864,82.7617283950617,0)" xlink:href="#bm"/><use transform="matrix(0.0530864197530864,0,0,0.0530864197530864,86.95555555555552,0)" xlink:href="#bn"/><use transform="matrix(0.0530864197530864,0,0,0.0530864197530864,97.5728395061728,0)" xlink:href="#bo"/><use transform="matrix(0.0530864197530864,0,0,0.0530864197530864,102.88148148148144,0)" xlink:href="#bm"/><use transform="matrix(0.0530864197530864,0,0,0.0530864197530864,107.07530864197527,0)" xlink:href="#bl"/><use transform="matrix(0.0530864197530864,0,0,0.0530864197530864,111.2691358024691,0)" xlink:href="#bj"/><use transform="matrix(0.0530864197530864,0,0,0.0530864197530864,121.88641975308637,0)" xlink:href="#bp"/><use transform="matrix(0.0530864197530864,0,0,0.0530864197530864,131.44197530864193,0)" xlink:href="#bl"/><use transform="matrix(0.0530864197530864,0,0,0.0530864197530864,135.63580246913577,0)" xlink:href="#bq"/><use transform="matrix(0.0530864197530864,0,0,0.0530864197530864,141.95308641975305,0)" xlink:href="#br"/><use transform="matrix(0.0530864197530864,0,0,0.0530864197530864,147.26172839506168,0)" xlink:href="#bh"/><use transform="matrix(0.0530864197530864,0,0,0.0530864197530864,152.5703703703703,0)" xlink:href="#bf"/><use transform="matrix(0.0530864197530864,0,0,0.0530864197530864,163.1876543209876,0)" xlink:href="#bg"/><use transform="matrix(0.0530864197530864,0,0,0.0530864197530864,173.8049382716049,0)" xlink:href="#bf"/><use transform="matrix(0.0530864197530864,0,0,0.0530864197530864,184.4222222222222,0)" xlink:href="#bg"/></g><path d="M141-36C126-15 110 5 73 4 37 3 15-17 15-53c-1-64 63-63 125-63 3-35-9-54-41-54-24 1-41 7-42 31l-33-3c5-37 33-52 76-52 45 0 72 20 72 64v82c-1 20 7 32 28 27v20c-31 9-61-2-59-35zM48-53c0 20 12 33 32 33 41-3 63-29 60-74-43 2-92-5-92 41" id="bs"/><path d="M206 0h-36l-40-164L89 0H53L-1-190h32L70-26l43-164h34l41 164 42-164h31" id="bt"/><path d="M117-194c89-4 53 116 60 194h-32v-121c0-31-8-49-39-48C34-167 62-67 57 0H25l-1-190h30c1 10-1 24 2 32 11-22 29-35 61-36" id="bu"/><path d="M198-261c85 0 136 45 136 128 0 61-22 111-78 115-29 2-39-18-37-44-12 23-32 44-66 44-41 0-58-28-58-68 0-60 30-105 88-108 29-1 43 15 54 32l7-28h28c-9 45-23 84-27 134-1 11 6 17 14 16 39-4 51-48 51-92 0-69-42-107-112-107-93 0-145 59-145 153C53-15 94 26 168 27c43 0 78-13 106-28l9 19c-30 18-67 32-115 32C79 50 28-1 28-86c0-107 62-175 170-175zM158-41c46 0 70-43 70-90 0-26-17-40-43-40-44 0-59 41-61 85-1 26 9 45 34 45" id="bv"/><path d="M27 0v-27h64v-190l-56 39v-29l58-41h29v221h61V0H27" id="bw"/><path d="M99-251c64 0 84 50 84 122C183-37 130 33 47-8c-14-7-20-23-25-40l30-5c6 39 69 39 84 7 9-19 16-44 16-74-10 22-31 35-62 35-49 0-73-33-73-83 0-54 28-83 82-83zm-1 141c31-1 51-18 51-49 0-36-14-67-51-67-34 0-49 23-49 58 0 34 15 58 49 58" id="bx"/><path d="M101-251c82-7 93 87 43 132L82-64C71-53 59-42 53-27h129V0H18c2-99 128-94 128-182 0-28-16-43-45-43s-46 15-49 41l-32-3c6-41 34-60 81-64" id="by"/><path d="M110-160c48 1 74 30 74 79 0 53-28 85-80 85-65 0-83-55-86-122-5-90 50-162 133-122 14 7 22 21 27 39l-31 6c-5-40-67-38-82-6-9 19-15 44-15 74 11-20 30-34 60-33zm-7 138c34 0 49-23 49-58s-16-56-50-56c-29 0-50 16-49 49 1 36 15 65 50 65" id="bz"/><path d="M126-127c33 6 58 20 58 59 0 88-139 92-164 29-3-8-5-16-6-25l32-3c6 27 21 44 54 44 32 0 52-15 52-46 0-38-36-46-79-43v-28c39 1 72-4 72-42 0-27-17-43-46-43-28 0-47 15-49 41l-32-3c6-42 35-63 81-64 48-1 79 21 79 65 0 36-21 52-52 59" id="bA"/><g id="M"><use transform="matrix(0.0530864197530864,0,0,0.0530864197530864,0,0)" xlink:href="#bb"/><use transform="matrix(0.0530864197530864,0,0,0.0530864197530864,9.555555555555552,0)" xlink:href="#bc"/><use transform="matrix(0.0530864197530864,0,0,0.0530864197530864,20.17283950617283,0)" xlink:href="#bs"/><use transform="matrix(0.0530864197530864,0,0,0.0530864197530864,30.790123456790113,0)" xlink:href="#bt"/><use transform="matrix(0.0530864197530864,0,0,0.0530864197530864,44.539506172839495,0)" xlink:href="#bu"/><use transform="matrix(0.0530864197530864,0,0,0.0530864197530864,55.15679012345677,0)" xlink:href="#bv"/><use transform="matrix(0.0530864197530864,0,0,0.0530864197530864,74.5333333333333,0)" xlink:href="#bw"/><use transform="matrix(0.0530864197530864,0,0,0.0530864197530864,85.15061728395058,0)" xlink:href="#bx"/><use transform="matrix(0.0530864197530864,0,0,0.0530864197530864,95.76790123456786,0)" xlink:href="#by"/><use transform="matrix(0.0530864197530864,0,0,0.0530864197530864,106.38518518518514,0)" xlink:href="#bo"/><use transform="matrix(0.0530864197530864,0,0,0.0530864197530864,111.69382716049378,0)" xlink:href="#bw"/><use transform="matrix(0.0530864197530864,0,0,0.0530864197530864,122.31111111111107,0)" xlink:href="#bz"/><use transform="matrix(0.0530864197530864,0,0,0.0530864197530864,132.92839506172834,0)" xlink:href="#bf"/><use transform="matrix(0.0530864197530864,0,0,0.0530864197530864,143.54567901234563,0)" xlink:href="#bo"/><use transform="matrix(0.0530864197530864,0,0,0.0530864197530864,148.85432098765426,0)" xlink:href="#bg"/><use transform="matrix(0.0530864197530864,0,0,0.0530864197530864,159.47160493827155,0)" xlink:href="#bo"/><use transform="matrix(0.0530864197530864,0,0,0.0530864197530864,164.78024691358019,0)" xlink:href="#by"/><use transform="matrix(0.0530864197530864,0,0,0.0530864197530864,175.39753086419748,0)" xlink:href="#bA"/><use transform="matrix(0.0530864197530864,0,0,0.0530864197530864,186.01481481481477,0)" xlink:href="#bg"/></g><path d="M179-190L93 31C79 59 56 82 12 73V49c39 6 53-20 64-50L1-190h34L92-34l54-156h33" id="bB"/><g id="N"><use transform="matrix(0.0530864197530864,0,0,0.0530864197530864,0,0)" xlink:href="#bf"/><use transform="matrix(0.0530864197530864,0,0,0.0530864197530864,10.61728395061728,0)" xlink:href="#bw"/><use transform="matrix(0.0530864197530864,0,0,0.0530864197530864,19.801234567901226,0)" xlink:href="#bw"/><use transform="matrix(0.0530864197530864,0,0,0.0530864197530864,28.985185185185177,0)" xlink:href="#bw"/><use transform="matrix(0.0530864197530864,0,0,0.0530864197530864,39.60246913580245,0)" xlink:href="#bh"/><use transform="matrix(0.0530864197530864,0,0,0.0530864197530864,44.91111111111109,0)" xlink:href="#bi"/><use transform="matrix(0.0530864197530864,0,0,0.0530864197530864,54.46666666666663,0)" xlink:href="#bi"/><use transform="matrix(0.0530864197530864,0,0,0.0530864197530864,64.0222222222222,0)" xlink:href="#bl"/><use transform="matrix(0.0530864197530864,0,0,0.0530864197530864,68.21604938271602,0)" xlink:href="#br"/><use transform="matrix(0.0530864197530864,0,0,0.0530864197530864,73.52469135802467,0)" xlink:href="#bB"/><use transform="matrix(0.0530864197530864,0,0,0.0530864197530864,81.64691358024689,0)" xlink:href="#bo"/><use transform="matrix(0.0530864197530864,0,0,0.0530864197530864,86.95555555555553,0)" xlink:href="#bm"/><use transform="matrix(0.0530864197530864,0,0,0.0530864197530864,91.14938271604936,0)" xlink:href="#bl"/><use transform="matrix(0.0530864197530864,0,0,0.0530864197530864,95.34320987654318,0)" xlink:href="#bj"/><use transform="matrix(0.0530864197530864,0,0,0.0530864197530864,105.96049382716046,0)" xlink:href="#bp"/><use transform="matrix(0.0530864197530864,0,0,0.0530864197530864,115.516049382716,0)" xlink:href="#bl"/><use transform="matrix(0.0530864197530864,0,0,0.0530864197530864,119.70987654320983,0)" xlink:href="#bq"/><use transform="matrix(0.0530864197530864,0,0,0.0530864197530864,126.02716049382711,0)" xlink:href="#br"/><use transform="matrix(0.0530864197530864,0,0,0.0530864197530864,131.33580246913576,0)" xlink:href="#bh"/><use transform="matrix(0.0530864197530864,0,0,0.0530864197530864,136.6444444444444,0)" xlink:href="#bf"/><use transform="matrix(0.0530864197530864,0,0,0.0530864197530864,147.26172839506168,0)" xlink:href="#bw"/><use transform="matrix(0.0530864197530864,0,0,0.0530864197530864,156.44567901234564,0)" xlink:href="#bw"/><use transform="matrix(0.0530864197530864,0,0,0.0530864197530864,165.6296296296296,0)" xlink:href="#bw"/></g><path fill="#3a414a" d="M0 4l72-265h28L28 4H0" id="bC"/><path fill="#3a414a" d="M134-131c28 9 52 24 51 62-1 50-34 73-85 73S17-19 16-69c0-36 21-54 49-61-75-25-45-126 34-121 46 3 78 18 79 63 0 33-17 51-44 57zm-34-11c31 1 46-15 46-44 0-28-17-43-47-42-29 0-46 13-45 42 1 28 16 44 46 44zm1 122c35 0 51-18 51-52 0-30-18-46-53-46-33 0-51 17-51 47 0 34 19 51 53 51" id="bD"/><g id="O"><use transform="matrix(0.05555555555555555,0,0,0.05555555555555555,0,0)" xlink:href="#aE"/><use transform="matrix(0.05555555555555555,0,0,0.05555555555555555,11.11111111111111,0)" xlink:href="#Z"/><use transform="matrix(0.05555555555555555,0,0,0.05555555555555555,16.666666666666664,0)" xlink:href="#Z"/><use transform="matrix(0.05555555555555555,0,0,0.05555555555555555,22.22222222222222,0)" xlink:href="#Y"/><use transform="matrix(0.05555555555555555,0,0,0.05555555555555555,33.33333333333333,0)" xlink:href="#aJ"/><use transform="matrix(0.05555555555555555,0,0,0.05555555555555555,38.888888888888886,0)" xlink:href="#bC"/><use transform="matrix(0.05555555555555555,0,0,0.05555555555555555,44.44444444444444,0)" xlink:href="#bC"/><use transform="matrix(0.05555555555555555,0,0,0.05555555555555555,50,0)" xlink:href="#ac"/><use transform="matrix(0.05555555555555555,0,0,0.05555555555555555,60,0)" xlink:href="#ac"/><use transform="matrix(0.05555555555555555,0,0,0.05555555555555555,70,0)" xlink:href="#af"/><use transform="matrix(0.05555555555555555,0,0,0.05555555555555555,74.38888888888889,0)" xlink:href="#Z"/><use transform="matrix(0.05555555555555555,0,0,0.05555555555555555,79.94444444444444,0)" xlink:href="#aX"/><use transform="matrix(0.05555555555555555,0,0,0.05555555555555555,88.44444444444444,0)" xlink:href="#aL"/><use transform="matrix(0.05555555555555555,0,0,0.05555555555555555,94,0)" xlink:href="#az"/><use transform="matrix(0.05555555555555555,0,0,0.05555555555555555,98.38888888888889,0)" xlink:href="#af"/><use transform="matrix(0.05555555555555555,0,0,0.05555555555555555,102.77777777777777,0)" xlink:href="#ai"/><use transform="matrix(0.05555555555555555,0,0,0.05555555555555555,113.88888888888889,0)" xlink:href="#aM"/><use transform="matrix(0.05555555555555555,0,0,0.05555555555555555,123.88888888888889,0)" xlink:href="#af"/><use transform="matrix(0.05555555555555555,0,0,0.05555555555555555,128.27777777777777,0)" xlink:href="#U"/><use transform="matrix(0.05555555555555555,0,0,0.05555555555555555,134.88888888888889,0)" xlink:href="#Z"/><use transform="matrix(0.05555555555555555,0,0,0.05555555555555555,140.44444444444443,0)" xlink:href="#aJ"/><use transform="matrix(0.05555555555555555,0,0,0.05555555555555555,145.99999999999997,0)" xlink:href="#bD"/><use transform="matrix(0.05555555555555555,0,0,0.05555555555555555,157.1111111111111,0)" xlink:href="#aB"/><use transform="matrix(0.05555555555555555,0,0,0.05555555555555555,166.7222222222222,0)" xlink:href="#aB"/><use transform="matrix(0.05555555555555555,0,0,0.05555555555555555,176.33333333333331,0)" xlink:href="#aB"/><use transform="matrix(0.05555555555555555,0,0,0.05555555555555555,187.44444444444443,0)" xlink:href="#bC"/></g><path fill="#333" d="M106-169C34-169 62-67 57 0H25v-261h32l-1 103c12-21 28-36 61-36 89 0 53 116 60 194h-32v-121c2-32-8-49-39-48" id="bE"/><path fill="#333" d="M59-47c-2 24 18 29 38 22v24C64 9 27 4 27-40v-127H5v-23h24l9-43h21v43h35v23H59v120" id="bF"/><path fill="#333" d="M115-194c55 1 70 41 70 98S169 2 115 4C84 4 66-9 55-30l1 105H24l-1-265h31l2 30c10-21 28-34 59-34zm-8 174c40 0 45-34 45-75s-6-73-45-74c-42 0-51 32-51 76 0 43 10 73 51 73" id="bG"/><path fill="#333" d="M33-154v-36h34v36H33zM33 0v-36h34V0H33" id="bH"/><path fill="#333" d="M0 4l72-265h28L28 4H0" id="bI"/><path fill="#333" d="M24 0v-261h32V0H24" id="bJ"/><path fill="#333" d="M100-194c62-1 85 37 85 99 1 63-27 99-86 99S16-35 15-95c0-66 28-99 85-99zM99-20c44 1 53-31 53-75 0-43-8-75-51-75s-53 32-53 75 10 74 51 75" id="bK"/><path fill="#333" d="M96-169c-40 0-48 33-48 73s9 75 48 75c24 0 41-14 43-38l32 2c-6 37-31 61-74 61-59 0-76-41-82-99-10-93 101-131 147-64 4 7 5 14 7 22l-32 3c-4-21-16-35-41-35" id="bL"/><path fill="#333" d="M141-36C126-15 110 5 73 4 37 3 15-17 15-53c-1-64 63-63 125-63 3-35-9-54-41-54-24 1-41 7-42 31l-33-3c5-37 33-52 76-52 45 0 72 20 72 64v82c-1 20 7 32 28 27v20c-31 9-61-2-59-35zM48-53c0 20 12 33 32 33 41-3 63-29 60-74-43 2-92-5-92 41" id="bM"/><path fill="#333" d="M135-143c-3-34-86-38-87 0 15 53 115 12 119 90S17 21 10-45l28-5c4 36 97 45 98 0-10-56-113-15-118-90-4-57 82-63 122-42 12 7 21 19 24 35" id="bN"/><path fill="#333" d="M134-131c28 9 52 24 51 62-1 50-34 73-85 73S17-19 16-69c0-36 21-54 49-61-75-25-45-126 34-121 46 3 78 18 79 63 0 33-17 51-44 57zm-34-11c31 1 46-15 46-44 0-28-17-43-47-42-29 0-46 13-45 42 1 28 16 44 46 44zm1 122c35 0 51-18 51-52 0-30-18-46-53-46-33 0-51 17-51 47 0 34 19 51 53 51" id="bO"/><path fill="#333" d="M101-251c68 0 85 55 85 127S166 4 100 4C33 4 14-52 14-124c0-73 17-127 87-127zm-1 229c47 0 54-49 54-102s-4-102-53-102c-51 0-55 48-55 102 0 53 5 102 54 102" id="bP"/><g id="P"><use transform="matrix(0.05555555555555555,0,0,0.05555555555555555,0,0)" xlink:href="#bE"/><use transform="matrix(0.05555555555555555,0,0,0.05555555555555555,11.11111111111111,0)" xlink:href="#bF"/><use transform="matrix(0.05555555555555555,0,0,0.05555555555555555,16.666666666666664,0)" xlink:href="#bF"/><use transform="matrix(0.05555555555555555,0,0,0.05555555555555555,22.22222222222222,0)" xlink:href="#bG"/><use transform="matrix(0.05555555555555555,0,0,0.05555555555555555,33.33333333333333,0)" xlink:href="#bH"/><use transform="matrix(0.05555555555555555,0,0,0.05555555555555555,38.888888888888886,0)" xlink:href="#bI"/><use transform="matrix(0.05555555555555555,0,0,0.05555555555555555,44.44444444444444,0)" xlink:href="#bI"/><use transform="matrix(0.05555555555555555,0,0,0.05555555555555555,50,0)" xlink:href="#bJ"/><use transform="matrix(0.05555555555555555,0,0,0.05555555555555555,54.388888888888886,0)" xlink:href="#bK"/><use transform="matrix(0.05555555555555555,0,0,0.05555555555555555,65.5,0)" xlink:href="#bL"/><use transform="matrix(0.05555555555555555,0,0,0.05555555555555555,75.5,0)" xlink:href="#bM"/><use transform="matrix(0.05555555555555555,0,0,0.05555555555555555,86.61111111111111,0)" xlink:href="#bJ"/><use transform="matrix(0.05555555555555555,0,0,0.05555555555555555,91,0)" xlink:href="#bE"/><use transform="matrix(0.05555555555555555,0,0,0.05555555555555555,102.11111111111111,0)" xlink:href="#bK"/><use transform="matrix(0.05555555555555555,0,0,0.05555555555555555,113.22222222222223,0)" xlink:href="#bN"/><use transform="matrix(0.05555555555555555,0,0,0.05555555555555555,123.22222222222224,0)" xlink:href="#bF"/><use transform="matrix(0.05555555555555555,0,0,0.05555555555555555,128.77777777777777,0)" xlink:href="#bH"/><use transform="matrix(0.05555555555555555,0,0,0.05555555555555555,134.33333333333331,0)" xlink:href="#bO"/><use transform="matrix(0.05555555555555555,0,0,0.05555555555555555,145.44444444444443,0)" xlink:href="#bP"/><use transform="matrix(0.05555555555555555,0,0,0.05555555555555555,156.55555555555554,0)" xlink:href="#bO"/><use transform="matrix(0.05555555555555555,0,0,0.05555555555555555,167.66666666666666,0)" xlink:href="#bP"/><use transform="matrix(0.05555555555555555,0,0,0.05555555555555555,178.77777777777777,0)" xlink:href="#bI"/></g><path fill="#333" d="M27 0v-27h64v-190l-56 39v-29l58-41h29v221h61V0H27" id="bQ"/><g id="Q"><use transform="matrix(0.05555555555555555,0,0,0.05555555555555555,0,0)" xlink:href="#bE"/><use transform="matrix(0.05555555555555555,0,0,0.05555555555555555,11.11111111111111,0)" xlink:href="#bF"/><use transform="matrix(0.05555555555555555,0,0,0.05555555555555555,16.666666666666664,0)" xlink:href="#bF"/><use transform="matrix(0.05555555555555555,0,0,0.05555555555555555,22.22222222222222,0)" xlink:href="#bG"/><use transform="matrix(0.05555555555555555,0,0,0.05555555555555555,33.33333333333333,0)" xlink:href="#bH"/><use transform="matrix(0.05555555555555555,0,0,0.05555555555555555,38.888888888888886,0)" xlink:href="#bI"/><use transform="matrix(0.05555555555555555,0,0,0.05555555555555555,44.44444444444444,0)" xlink:href="#bI"/><use transform="matrix(0.05555555555555555,0,0,0.05555555555555555,50,0)" xlink:href="#bJ"/><use transform="matrix(0.05555555555555555,0,0,0.05555555555555555,54.388888888888886,0)" xlink:href="#bK"/><use transform="matrix(0.05555555555555555,0,0,0.05555555555555555,65.5,0)" xlink:href="#bL"/><use transform="matrix(0.05555555555555555,0,0,0.05555555555555555,75.5,0)" xlink:href="#bM"/><use transform="matrix(0.05555555555555555,0,0,0.05555555555555555,86.61111111111111,0)" xlink:href="#bJ"/><use transform="matrix(0.05555555555555555,0,0,0.05555555555555555,91,0)" xlink:href="#bE"/><use transform="matrix(0.05555555555555555,0,0,0.05555555555555555,102.11111111111111,0)" xlink:href="#bK"/><use transform="matrix(0.05555555555555555,0,0,0.05555555555555555,113.22222222222223,0)" xlink:href="#bN"/><use transform="matrix(0.05555555555555555,0,0,0.05555555555555555,123.22222222222224,0)" xlink:href="#bF"/><use transform="matrix(0.05555555555555555,0,0,0.05555555555555555,128.77777777777777,0)" xlink:href="#bH"/><use transform="matrix(0.05555555555555555,0,0,0.05555555555555555,134.33333333333331,0)" xlink:href="#bO"/><use transform="matrix(0.05555555555555555,0,0,0.05555555555555555,145.44444444444443,0)" xlink:href="#bQ"/><use transform="matrix(0.05555555555555555,0,0,0.05555555555555555,155.05555555555554,0)" xlink:href="#bQ"/><use transform="matrix(0.05555555555555555,0,0,0.05555555555555555,164.66666666666666,0)" xlink:href="#bQ"/><use transform="matrix(0.05555555555555555,0,0,0.05555555555555555,175.77777777777777,0)" xlink:href="#bI"/></g><path d="M115-194c55 1 70 41 70 98S169 2 115 4C84 4 66-9 55-30l1 105H24l-1-265h31l2 30c10-21 28-34 59-34zm-8 174c40 0 45-34 45-75s-6-73-45-74c-42 0-51 32-51 76 0 43 10 73 51 73" id="bR"/><path d="M0 4l72-265h28L28 4H0" id="bS"/><g id="R"><use transform="matrix(0.0530864197530864,0,0,0.0530864197530864,0,0)" xlink:href="#bc"/><use transform="matrix(0.0530864197530864,0,0,0.0530864197530864,10.61728395061728,0)" xlink:href="#br"/><use transform="matrix(0.0530864197530864,0,0,0.0530864197530864,15.92592592592592,0)" xlink:href="#br"/><use transform="matrix(0.0530864197530864,0,0,0.0530864197530864,21.23456790123456,0)" xlink:href="#bR"/><use transform="matrix(0.0530864197530864,0,0,0.0530864197530864,31.85185185185184,0)" xlink:href="#bh"/><use transform="matrix(0.0530864197530864,0,0,0.0530864197530864,37.16049382716048,0)" xlink:href="#bS"/><use transform="matrix(0.0530864197530864,0,0,0.0530864197530864,42.46913580246912,0)" xlink:href="#bS"/><use transform="matrix(0.0530864197530864,0,0,0.0530864197530864,47.77777777777776,0)" xlink:href="#bi"/><use transform="matrix(0.0530864197530864,0,0,0.0530864197530864,57.3333333333333,0)" xlink:href="#bj"/><use transform="matrix(0.0530864197530864,0,0,0.0530864197530864,67.95061728395059,0)" xlink:href="#bk"/><use transform="matrix(0.0530864197530864,0,0,0.0530864197530864,78.56790123456787,0)" xlink:href="#bl"/><use transform="matrix(0.0530864197530864,0,0,0.0530864197530864,82.7617283950617,0)" xlink:href="#bm"/><use transform="matrix(0.0530864197530864,0,0,0.0530864197530864,86.95555555555552,0)" xlink:href="#bn"/><use transform="matrix(0.0530864197530864,0,0,0.0530864197530864,97.5728395061728,0)" xlink:href="#bo"/><use transform="matrix(0.0530864197530864,0,0,0.0530864197530864,102.88148148148144,0)" xlink:href="#bm"/><use transform="matrix(0.0530864197530864,0,0,0.0530864197530864,107.07530864197527,0)" xlink:href="#bl"/><use transform="matrix(0.0530864197530864,0,0,0.0530864197530864,111.2691358024691,0)" xlink:href="#bj"/><use transform="matrix(0.0530864197530864,0,0,0.0530864197530864,121.88641975308637,0)" xlink:href="#bp"/><use transform="matrix(0.0530864197530864,0,0,0.0530864197530864,131.44197530864193,0)" xlink:href="#bl"/><use transform="matrix(0.0530864197530864,0,0,0.0530864197530864,135.63580246913577,0)" xlink:href="#bq"/><use transform="matrix(0.0530864197530864,0,0,0.0530864197530864,141.95308641975305,0)" xlink:href="#br"/><use transform="matrix(0.0530864197530864,0,0,0.0530864197530864,147.26172839506168,0)" xlink:href="#bh"/><use transform="matrix(0.0530864197530864,0,0,0.0530864197530864,152.5703703703703,0)" xlink:href="#bf"/><use transform="matrix(0.0530864197530864,0,0,0.0530864197530864,163.1876543209876,0)" xlink:href="#bg"/><use transform="matrix(0.0530864197530864,0,0,0.0530864197530864,173.8049382716049,0)" xlink:href="#bf"/><use transform="matrix(0.0530864197530864,0,0,0.0530864197530864,184.4222222222222,0)" xlink:href="#bg"/><use transform="matrix(0.0530864197530864,0,0,0.0530864197530864,195.03950617283948,0)" xlink:href="#bS"/></g></defs></g></svg>